<?xml version="1.0" encoding="UTF-8"?><svg id="Layer_1" xmlns="http://www.w3.org/2000/svg" xmlns:xlink="http://www.w3.org/1999/xlink" viewBox="0 0 621.76 430.44"><defs><style>.cls-1{fill:url(#linear-gradient);}.cls-2{fill:#fff;}</style><linearGradient id="linear-gradient" x1="412.78" y1="45.62" x2="259.56" y2="164.64" gradientUnits="userSpaceOnUse"><stop offset="0" stop-color="#d4fdb1"/><stop offset="1" stop-color="#b3e6e1"/></linearGradient></defs><path class="cls-1" d="M418.78,184.32l-34.42-59.54,34.42-59.54c.63-1.08.44-2.46-.44-3.34-.23-.23-.49-.4-.77-.53l.05-.08L313.6.73c-1.68-.98-3.76-.97-5.44,0l-104.02,60.56.05.08c-.28.13-.54.31-.77.53-.89.88-1.07,2.26-.44,3.34l34.41,59.54-34.41,59.53c-.63,1.08-.45,2.46.44,3.34.22.22.48.39.75.52l-.03.05,104.02,60.56c.84.49,1.78.73,2.72.73s1.88-.24,2.72-.73l104.02-60.56-.02-.04c.27-.13.52-.31.75-.53.89-.88,1.07-2.26.44-3.34ZM410.21,179.51l-42.98-25.09,14.24-24.63,28.74,49.72ZM310.88,7.66l49.53,85.69-49.1,28.66c-.29-.05-.57-.05-.86,0l-49.1-28.66L310.88,7.66ZM257.02,90.83l-46.77-27.3,94.28-54.89-47.51,82.19ZM317.22,8.63l94.28,54.89-46.77,27.3-47.51-82.2ZM362.91,97.68l15.67,27.11-15.67,27.11-46.44-27.11,46.43-27.11ZM305.28,124.79l-46.44,27.11-15.67-27.11,15.67-27.11,46.44,27.11ZM310.45,127.56c.29.05.57.05.86,0l49.1,28.66-49.53,85.69-49.53-85.69,49.1-28.66ZM304.5,240.87l-94.2-54.85,46.73-27.28,47.47,82.13ZM364.73,158.75l46.73,27.28-94.2,54.85,47.47-82.12ZM381.47,119.79l-14.24-24.63,42.98-25.09-28.74,49.72ZM211.54,70.07l42.98,25.09-14.24,24.63-28.74-49.72ZM240.28,129.79l14.24,24.63-42.98,25.09,28.74-49.72Z"/><path class="cls-2" d="M271.53,346.71c-21.84,0-38.32,18-38.32,41.87s16.94,41.87,40.27,41.87c14.65,0,24.19-6.36,29.2-11,1.92-1.78,1.92-4.8.03-6.6h0c-1.72-1.64-4.43-1.68-6.16-.05-6.18,5.8-14.07,8.83-23.07,8.83-17.42,0-30.14-13.22-30.92-32.15l-.02-.4h63.17c1.69,0,3.07-1.38,3.07-3.07,0-.03,0-.06,0-.09,0-22.35-16.02-39.21-37.25-39.21ZM299.14,380.61h-56.14l.1-.47c3.22-14.96,14.38-24.63,28.43-24.63s25.37,10.14,27.54,24.65l.07.44ZM340.32,305.16h.36c2.48,0,4.5,2.01,4.5,4.5v114.51c0,2.48-2.01,4.5-4.5,4.5h-.36c-2.48,0-4.5-2.01-4.5-4.5v-114.51c0-2.48,2.01-4.5,4.5-4.5ZM196.9,355.67c-6.98-5.69-16.27-8.96-25.49-8.96-11.18,0-21.49,4.43-29.01,12.48l-.67.71v-50.24c0-2.48-2.01-4.5-4.5-4.5h-.36c-2.48,0-4.5,2.01-4.5,4.5v114.51c0,2.48,2.01,4.5,4.5,4.5h0c2.48,0,4.5-2.01,4.5-4.5v-8.18l.69.94c6.25,8.46,17.02,13.51,28.81,13.51,8.82,0,16.86-2.54,23.92-7.56,10.84-7.59,17.06-20.09,17.06-34.31,0-12.87-5.45-24.86-14.95-32.91ZM189.56,415.52c-5.88,4.05-12.1,6.11-18.51,6.11-11.26,0-21.73-6.1-28.34-16.41-.63-.99-.94-2.15-.94-3.33v-27.94c0-1.31.38-2.59,1.15-3.66,4.66-6.49,15.05-14.77,28.3-14.77,7.08,0,14.29,2.56,19.77,7.01,7.31,6.03,11.5,15.52,11.5,26.04,0,11.16-4.84,21.23-12.95,26.95ZM49.63,308.19L.37,422.37c-1.28,2.98.9,6.3,4.14,6.3h0c1.79,0,3.42-1.06,4.14-2.71l15.15-34.75h60.87l15.15,34.75c.72,1.64,2.34,2.71,4.14,2.71h0c3.24,0,5.43-3.32,4.14-6.3l-49.26-114.18c-.79-1.84-2.6-3.03-4.6-3.03h0c-2,0-3.81,1.19-4.6,3.03ZM27.73,381.86l26.51-61.37,26.33,61.37H27.73ZM518.29,346.71c.17,0,.38,0,.62,0,2.65.06,4.66,2.44,4.26,5.06h0c-.33,2.17-2.2,3.76-4.39,3.75-.24,0-.46,0-.66,0-10.52,0-20.46,6.71-25.16,16.83-.41.87-.58,1.84-.58,2.8l-.03,49.02c0,2.48-2.01,4.49-4.5,4.49h-.36c-2.48,0-4.5-2.01-4.5-4.5v-71.19c0-2.48,2.01-4.5,4.5-4.5h.36c2.48,0,4.5,2.01,4.5,4.5v7.06l.71-1.08c4-6.1,13.36-12.25,25.24-12.25ZM617.26,348.48c-2.48,0-4.5,2.01-4.5,4.5v7.31l-.67-.75c-7.27-8.15-17.97-12.83-29.36-12.83-9.22,0-18.51,3.27-25.5,8.97-9.5,8.04-14.95,20.03-14.95,32.9,0,14.21,6.22,26.72,17.06,34.3,7.06,5.02,15.11,7.56,23.92,7.56,11.78,0,22.55-5.05,28.81-13.51l.69-.94v8.18c0,2.48,2.01,4.5,4.5,4.5h0c2.48,0,4.5-2.01,4.5-4.5v-71.19c0-2.48-2.01-4.5-4.5-4.5h0ZM612.35,402.31c0,.9-.23,1.79-.71,2.55-6.59,10.53-17.17,16.77-28.56,16.77-6.41,0-12.63-2.05-18.5-6.1-8.11-5.71-12.95-15.79-12.95-26.95,0-10.52,4.19-20.01,11.5-26.04,5.49-4.46,12.69-7.01,19.77-7.01,13.51,0,24.05,8.61,28.57,15.16.57.83.88,1.8.88,2.8v28.83ZM441.27,360.29l-.67-.75c-7.27-8.15-17.97-12.83-29.36-12.83-9.22,0-18.51,3.27-25.5,8.97-9.5,8.04-14.95,20.03-14.95,32.9,0,14.21,6.22,26.72,17.06,34.3,7.06,5.02,15.11,7.56,23.92,7.56,11.78,0,22.55-5.05,28.81-13.51l.69-.94v8.18c0,2.48,2.01,4.5,4.5,4.5h0c2.48,0,4.5-2.01,4.5-4.5v-71.19c0-2.48-2.01-4.5-4.5-4.5h0c-2.48,0-4.5,2.01-4.5,4.5v7.31ZM440.87,402.31c0,.9-.23,1.79-.71,2.55-6.59,10.53-17.18,16.77-28.56,16.77-6.41,0-12.63-2.05-18.5-6.1-8.11-5.71-12.95-15.79-12.95-26.95,0-10.52,4.19-20.01,11.5-26.04,5.49-4.46,12.69-7.01,19.77-7.01,13.51,0,24.05,8.61,28.57,15.16.57.83.88,1.8.88,2.8v28.83Z"/></svg>